<?xml version="1.0" encoding="UTF-8"?> <svg xmlns="http://www.w3.org/2000/svg" id="Calque_2" version="1.1" viewBox="0 0 39.5 40.5"><defs><style> .st0 { stroke: #0e96c9; } .st0, .st1 { fill: none; stroke-linecap: round; stroke-linejoin: round; } .st1 { stroke: #ed2e7c; } </style></defs><g id="Calque_11"><path class="st1" d="M12.8,5.6h0c1.8,0,3.2,1.4,3.2,3.2v.7c0,1.8-1.4,3.2-3.2,3.2h0c-1.8,0-3.2-1.4-3.2-3.2v-.7c0-1.8,1.4-3.2,3.2-3.2Z"></path><path class="st0" d="M26.4,3.5h0c1.8,0,3.2,1.4,3.2,3.2v.7c0,1.8-1.4,3.2-3.2,3.2h0c-1.8,0-3.2-1.4-3.2-3.2v-.7c0-1.8,1.4-3.2,3.2-3.2Z"></path><path class="st0" d="M9.4,30.6c1-1.3,2.7-2.2,4.5-2.2s3.5.9,4.6,2.3"></path><path class="st0" d="M29,31.9c-1-1.2-2.6-2-4.3-2-3.2,0-5.7,2.6-5.7,5.7v1.4"></path><path class="st0" d="M14.3,21.3h0c1.8,0,3.2,1.4,3.2,3.2v.7c0,1.8-1.4,3.2-3.2,3.2h0c-1.8,0-3.2-1.4-3.2-3.2v-.7c0-1.8,1.4-3.2,3.2-3.2Z"></path><path class="st0" d="M20.2,17.6c1.5-2.4,4.2-4.1,7.3-4.1,4.7,0,8.6,3.8,8.6,8.6v2.1c0,5-2.2,9.5-5.7,12.5-1.4,1.2-3.5.2-3.5-1.6h0c0-.6.3-1.2.7-1.6,2.6-2.2,4.3-5.5,4.3-9.2v-2.1"></path><path class="st0" d="M25,22.8h0c1.8,0,3.2,1.4,3.2,3.2v.7c0,1.8-1.4,3.2-3.2,3.2h0c-1.8,0-3.2-1.4-3.2-3.2v-.7c0-1.8,1.4-3.2,3.2-3.2Z"></path><path class="st1" d="M7.6,22.8c-.4,4.2,1.3,8,4.2,10.5.5.4.7,1,.7,1.6h0c0,1.8-2.2,2.8-3.6,1.6-3.5-3-5.7-7.4-5.7-12.3h0c0-4.7,3.8-8.6,8.6-8.6s6.4,2,7.8,5"></path></g></svg> 