<?xml version="1.0" encoding="UTF-8"?> <svg xmlns="http://www.w3.org/2000/svg" id="Calque_2" data-name="Calque 2" viewBox="0 0 17.89 43.35"><defs><style> .cls-1 { fill: none; stroke: #ed2e7c; stroke-linecap: round; stroke-linejoin: round; } </style></defs><g id="Calque_11" data-name="Calque 11"><path class="cls-1" d="M5.37,4.36c0,2.13,1.6,3.86,3.57,3.86s3.57-1.73,3.57-3.86-1.6-3.86-3.57-3.86-3.57,1.73-3.57,3.86Z"></path><path class="cls-1" d="M3.9,29.13h-.6c-1.55,0-2.8-1.25-2.8-2.8v-8.53c0-2.35,1.42-7.05,8.77-7.05,0,0,8.13-.29,8.13,7.05v8.53c0,1.55-1.25,2.8-2.8,2.8h-.78"></path><g><polyline class="cls-1" points="4.12 17.89 4.12 30.61 4.74 42.85"></polyline><polyline class="cls-1" points="13.77 17.89 13.77 30.61 13.15 42.85"></polyline></g><line class="cls-1" x1="8.95" y1="29" x2="8.95" y2="42.85"></line></g></svg> 