<?xml version="1.0" encoding="UTF-8"?> <svg xmlns="http://www.w3.org/2000/svg" id="Calque_2" version="1.1" viewBox="0 0 33.5 40.6"><defs><style> .st0 { stroke: #0e96c9; } .st0, .st1 { fill: none; stroke-linecap: round; stroke-linejoin: round; } .st1 { stroke: #ed2e7c; } </style></defs><g id="Calque_11"><path class="st1" d="M13.4,3.9h0c1.8,0,3.3,1.5,3.3,3.3v.7c0,1.8-1.5,3.3-3.3,3.3h0c-1.8,0-3.3-1.5-3.3-3.3v-.7c0-1.8,1.5-3.3,3.3-3.3Z"></path><path class="st0" d="M9.9,29.8c1.1-1.4,2.8-2.2,4.6-2.2s3.6.9,4.7,2.3"></path><path class="st0" d="M30.1,31.1c-1.1-1.3-2.7-2.1-4.5-2.1-3.3,0-5.9,2.6-5.9,5.9v1.5"></path><path class="st0" d="M14.9,20.1h0c1.8,0,3.3,1.5,3.3,3.3v.7c0,1.8-1.5,3.3-3.3,3.3h0c-1.8,0-3.3-1.5-3.3-3.3v-.7c0-1.8,1.5-3.3,3.3-3.3Z"></path><rect class="st0" x="22.6" y="21.6" width="6.6" height="7.4" rx="3.3" ry="3.3"></rect><path class="st1" d="M7.9,21.6c-.5,4.3,1.3,8.3,4.3,10.9.5.4.8,1,.8,1.7h0c0,1.9-2.2,2.9-3.7,1.7-3.6-3.1-5.9-7.7-5.9-12.8h0c0-4.9,4-8.9,8.9-8.9s6.7,2.1,8.1,5.2"></path></g></svg> 