<?xml version="1.0" encoding="UTF-8"?> <svg xmlns="http://www.w3.org/2000/svg" id="Calque_2" version="1.1" viewBox="0 0 33.2 39"><defs><style> .st0 { stroke: #0e96c9; } .st0, .st1 { fill: none; stroke-linecap: round; stroke-linejoin: round; } .st1 { stroke: #ed2e7c; } </style></defs><g id="Calque_11"><path class="st0" d="M21.4,4.8h0c1.6,0,2.9,1.3,2.9,2.9v1.3c0,1.6-1.3,2.9-2.9,2.9h0c-1.6,0-2.9-1.3-2.9-2.9v-1.3c0-1.6,1.3-2.9,2.9-2.9Z"></path><path class="st1" d="M11.8,6.7h0c1.6,0,2.9,1.3,2.9,2.9v1.3c0,1.6-1.3,2.9-2.9,2.9h0c-1.6,0-2.9-1.3-2.9-2.9v-1.3c0-1.6,1.3-2.9,2.9-2.9Z"></path><path class="st1" d="M11.8,30.8c0,0-.2-.2-.3-.2l-3.5-2v-4.6"></path><path class="st1" d="M5.3,20c-.7,1.2-1.1,2.5-1.1,4v5.7c0,.7.4,1.3,1,1.7l4.5,2.6c.3.2.6.3.9.3.5,0,.9-.2,1.3-.5"></path><path class="st0" d="M25.2,22v5.7h-5.6c-1,0-2,.8-2,1.8,0,1.1.8,2,1.9,2h7c1.4,0,2.5-1.1,2.5-2.5v-7c0-4.2-3.4-7.6-7.6-7.6s-3.2.5-4.5,1.5"></path><path class="st1" d="M19.5,27.8v-3.8c0-2.1-.9-4-2.2-5.4-1.4-1.4-3.3-2.2-5.4-2.2s-2.4.3-3.5.8"></path><path class="st1" d="M15.7,24v4.6l-3.5,2c-.9.5-1.2,1.7-.7,2.6.4.6,1,1,1.7,1s.6,0,.9-.3l4.4-2.6"></path><line class="st0" x1="25.9" y1="31.6" x2="25.9" y2="34.2"></line><path class="st0" d="M8.4,17.8c0,.5-.2,1-.6,1.4l-.5.5c-.6.6-1.4.7-2.1.4-.2,0-.4-.2-.6-.4-.7-.7-.7-2,0-2.7l.5-.5c.7-.7,2-.7,2.7,0,.2.2.4.5.5.7,0,.2.1.4.1.6h0Z"></path></g></svg> 